# xmcd
#
# Track frame offsets: 
#        150
#        16282
#        36778
#        50462
#        68360
#        88895
#        109587
#        133254
#        159792
#        175124
#        199741
#        217028
#        236967
#        265522
#        283844
#
# Disc length: 3954 seconds
#
# Revision: 2
# Processed by: cddbd v1.5.2PL0 Copyright (c) Steve Scherf et al.
# Submitted via: ExactAudioCopyFreeDBPlugin 1.0
#
DISCID=d00f700f
DTITLE=Jeff Beck - Official Bootleg USA '06
DYEAR=2007
DGENRE=Rock
TTITLE0=Beck's Bolero
TTITLE1=Stratus
TTITLE2=You Never Know
TTITLE3='Cause We've Ended As Lovers
TTITLE4=Behind The Veil
TTITLE5=Two Rivers
TTITLE6=Star Cycle
TTITLE7=Big Block
TTITLE8=Nadia (The River)
TTITLE9=Angels (Footsteps)
TTITLE10=Scatterbrain
TTITLE11=Led Boots
TTITLE12=Goodbye Pork Pie Hat - Brush With The Blues
TTITLE13=Blue Wind
TTITLE14=Over The Rainbow
EXTD=YEAR: 2007
EXTT0=
EXTT1=
EXTT2=
EXTT3=
EXTT4=
EXTT5=
EXTT6=
EXTT7=
EXTT8=
EXTT9=
EXTT10=
EXTT11=
EXTT12=
EXTT13=
EXTT14=
PLAYORDER=
